<?xml version="1.0" encoding="UTF-8" standalone="no"?>
<svg
   xmlns:dc="http://purl.org/dc/elements/1.1/"
   xmlns:cc="http://creativecommons.org/ns#"
   xmlns:rdf="http://www.w3.org/1999/02/22-rdf-syntax-ns#"
   xmlns:svg="http://www.w3.org/2000/svg"
   xmlns="http://www.w3.org/2000/svg"
   xmlns:sodipodi="http://sodipodi.sourceforge.net/DTD/sodipodi-0.dtd"
   xmlns:inkscape="http://www.inkscape.org/namespaces/inkscape"
   width="75"
   height="34.999973"
   viewBox="0 0 19.84375 9.2604098"
   version="1.1"
   id="svg8"
   inkscape:version="1.0.2 (e86c870879, 2021-01-15)"
   sodipodi:docname="dessin-3.svg">
  <defs
     id="defs2" />
  <sodipodi:namedview
     id="base"
     pagecolor="#ffffff"
     bordercolor="#666666"
     borderopacity="1.0"
     inkscape:pageopacity="0.0"
     inkscape:pageshadow="2"
     inkscape:zoom="0.35"
     inkscape:cx="166.07143"
     inkscape:cy="46.071408"
     inkscape:document-units="mm"
     inkscape:current-layer="layer1"
     inkscape:document-rotation="0"
     showgrid="false"
     units="px"
     inkscape:window-width="1435"
     inkscape:window-height="1049"
     inkscape:window-x="526"
     inkscape:window-y="31"
     inkscape:window-maximized="0"
     fit-margin-top="0"
     fit-margin-left="0"
     fit-margin-right="0"
     fit-margin-bottom="0" />
  <metadata
     id="metadata5">
    <rdf:RDF>
      <cc:Work
         rdf:about="">
        <dc:format>image/svg+xml</dc:format>
        <dc:type
           rdf:resource="http://purl.org/dc/dcmitype/StillImage" />
        <dc:title></dc:title>
      </cc:Work>
    </rdf:RDF>
  </metadata>
  <g
     inkscape:label="Calque 1"
     inkscape:groupmode="layer"
     id="layer1"
     transform="translate(-61.8936,-135.97694)">
    <path
       style="fill:#0869fb;stroke:none;stroke-width:0.109644"
       d="m 62.637539,138.66892 c -0.0185,-0.53422 0.1548,-0.82592 0.55821,-1.18448 v 6.56843 l -0.89314,-0.10767 0.7815,1.29215 c 1.02734,-0.11544 2.64308,-0.3757 3.45108,-1.02371 1.25154,-1.0038 1.05843,-2.78194 -0.43672,-3.39114 1.56223,-0.74776 2.82099,-2.72088 0.9999,-3.99398 -0.83668,-0.58492 -1.9171,-0.52855 -2.89783,-0.52855 v -0.32303 c -1.28241,0.11636 -3.45931,1.79739 -1.563,2.69198 m 17.86286,5.59932 -2.00957,-3.01502 v -0.10768 c 0.39153,-0.31441 0.78406,-0.70553 0.957,-1.18129 0.15451,-0.4247 -0.1592,-0.73458 -0.59394,-0.4971 -0.64362,0.35154 -1.25096,1.56538 -1.81442,2.10911 l 0.22329,-5.06093 c -0.32634,0.0225 -0.75638,0.0303 -0.97576,0.30815 -0.2685,0.33989 -0.14067,1.0143 -0.14067,1.41472 v 3.66109 c 0,0.50641 -0.1803,1.44012 0.1544,1.86844 0.23389,0.29947 0.68806,0.17198 0.77915,-0.17211 0.12426,-0.46896 -0.21033,-1.8663 0.83007,-1.68325 0.5111,0.0899 0.51814,0.9045 0.59227,1.27907 0.21424,1.08196 0.93969,1.46993 1.99818,1.0768 m -16.29986,-3.55342 v -3.55341 c 0.49601,0.004 0.9792,0.034 1.45107,0.19711 2.55032,0.8818 0.15616,3.11434 -1.45107,3.3563 m 16.65768,-2.91266 c -0.72512,0.30846 -0.39131,1.39167 0.41208,1.08543 0.83609,-0.31866 0.45806,-1.45554 -0.41208,-1.08543 m 0.53533,0.32836 -0.55823,0.5384 0.55823,-0.5384 m -11.61087,1.72287 c -0.91413,-0.95213 -1.60877,1.69814 -1.60218,2.26126 0.005,0.40741 0.0969,0.82718 0.31628,1.17922 0.57552,0.92311 1.86957,0.95035 2.53798,0.10163 0.55844,-0.70897 0.60689,-1.74748 0.36139,-2.573 -0.23356,-0.78535 -0.76889,-1.43008 -1.61347,-0.96911 m 3.9075,0 c -0.88432,-0.94283 -1.64092,1.58241 -1.65041,2.15358 -0.007,0.40172 0.0942,0.82769 0.28904,1.18356 0.55498,1.01342 1.87047,1.10538 2.59961,0.1987 0.55151,-0.68576 0.56558,-1.75854 0.34441,-2.56673 -0.21603,-0.78972 -0.73662,-1.43087 -1.58265,-0.96911 m 7.59172,4.09181 0.33493,-4.30717 c -1.58053,0.0361 -1.03739,1.03259 -1.16544,2.15358 -0.0877,0.7688 -0.34632,2.27957 0.83051,2.15359 m -10.82936,-3.66109 c 0.24428,0.67096 0.6904,3.10024 -0.65467,3.10024 -1.166,0 -0.61058,-2.45296 -0.35011,-2.99257 h 0.11164 v 0.5384 l 0.89314,-0.64607 m 2.90272,0.10767 h 0.11164 v 0.43072 c 1.28121,-1.29614 1.30276,1.53926 0.76743,2.23815 -0.48151,0.62869 -1.0366,0.18114 -1.20195,-0.40851 -0.21245,-0.75789 -0.0277,-1.57094 0.32288,-2.26036 m -9.15472,3.76878 v -2.90734 c 0.49144,7.7e-4 1.01041,-0.0298 1.44439,0.23325 1.69406,1.02677 -0.0928,2.65987 -1.44439,2.67409 z"
       id="path849" />
  </g>
</svg>
